<svg width="1429" height="221" viewBox="0 0 1429 221" fill="none" xmlns="http://www.w3.org/2000/svg">
<path d="M90.4 92.5C88.7 91.1 86.25 89.75 83.05 88.45C79.85 87.15 76.35 86.5 72.55 86.5C68.55 86.5 65.1 87.25 62.2 88.75C59.4 90.15 57.1 92.15 55.3 94.75C53.5 97.25 52.2 100.25 51.4 103.75C50.6 107.25 50.2 111 50.2 115C50.2 124.1 52.45 131.15 56.95 136.15C61.45 141.05 67.45 143.5 74.95 143.5C78.75 143.5 81.9 143.35 84.4 143.05C87 142.65 89 142.25 90.4 141.85V92.5ZM90.4 40L104.35 37.6V151.75C101.15 152.65 97.05 153.55 92.05 154.45C87.05 155.35 81.3 155.8 74.8 155.8C68.8 155.8 63.4 154.85 58.6 152.95C53.8 151.05 49.7 148.35 46.3 144.85C42.9 141.35 40.25 137.1 38.35 132.1C36.55 127 35.65 121.3 35.65 115C35.65 109 36.4 103.5 37.9 98.5C39.5 93.5 41.8 89.2 44.8 85.6C47.8 82 51.45 79.2 55.75 77.2C60.15 75.2 65.15 74.2 70.75 74.2C75.25 74.2 79.2 74.8 82.6 76C86.1 77.2 88.7 78.35 90.4 79.45V40ZM251.48 115.15C251.48 108.25 252.48 102.25 254.48 97.15C256.48 91.95 259.13 87.65 262.43 84.25C265.73 80.85 269.53 78.3 273.83 76.6C278.13 74.9 282.53 74.05 287.03 74.05C297.53 74.05 305.58 77.35 311.18 83.95C316.78 90.45 319.58 100.4 319.58 113.8C319.58 114.4 319.58 115.2 319.58 116.2C319.58 117.1 319.53 117.95 319.43 118.75H266.03C266.63 126.85 268.98 133 273.08 137.2C277.18 141.4 283.58 143.5 292.28 143.5C297.18 143.5 301.28 143.1 304.58 142.3C307.98 141.4 310.53 140.55 312.23 139.75L314.18 151.45C312.48 152.35 309.48 153.3 305.18 154.3C300.98 155.3 296.18 155.8 290.78 155.8C283.98 155.8 278.08 154.8 273.08 152.8C268.18 150.7 264.13 147.85 260.93 144.25C257.73 140.65 255.33 136.4 253.73 131.5C252.23 126.5 251.48 121.05 251.48 115.15ZM305.03 107.5C305.13 101.2 303.53 96.05 300.23 92.05C297.03 87.95 292.58 85.9 286.88 85.9C283.68 85.9 280.83 86.55 278.33 87.85C275.93 89.05 273.88 90.65 272.18 92.65C270.48 94.65 269.13 96.95 268.13 99.55C267.23 102.15 266.63 104.8 266.33 107.5H305.03ZM462.769 115.15C462.769 108.25 463.769 102.25 465.769 97.15C467.769 91.95 470.419 87.65 473.719 84.25C477.019 80.85 480.819 78.3 485.119 76.6C489.419 74.9 493.819 74.05 498.319 74.05C508.819 74.05 516.869 77.35 522.469 83.95C528.069 90.45 530.869 100.4 530.869 113.8C530.869 114.4 530.869 115.2 530.869 116.2C530.869 117.1 530.819 117.95 530.719 118.75H477.319C477.919 126.85 480.269 133 484.369 137.2C488.469 141.4 494.869 143.5 503.569 143.5C508.469 143.5 512.569 143.1 515.869 142.3C519.269 141.4 521.819 140.55 523.519 139.75L525.469 151.45C523.769 152.35 520.769 153.3 516.469 154.3C512.269 155.3 507.469 155.8 502.069 155.8C495.269 155.8 489.369 154.8 484.369 152.8C479.469 150.7 475.419 147.85 472.219 144.25C469.019 140.65 466.619 136.4 465.019 131.5C463.519 126.5 462.769 121.05 462.769 115.15ZM516.319 107.5C516.419 101.2 514.819 96.05 511.519 92.05C508.319 87.95 503.869 85.9 498.169 85.9C494.969 85.9 492.119 86.55 489.619 87.85C487.219 89.05 485.169 90.65 483.469 92.65C481.769 94.65 480.419 96.95 479.419 99.55C478.519 102.15 477.919 104.8 477.619 107.5H516.319ZM748.758 50.05V62.65H716.058V154H701.508V62.65H668.808V50.05H748.758ZM878.204 168.55C879.304 169.05 880.704 169.5 882.404 169.9C884.204 170.4 885.954 170.65 887.654 170.65C893.154 170.65 897.454 169.4 900.554 166.9C903.654 164.5 906.454 160.55 908.954 155.05C902.654 143.05 896.754 130.35 891.254 116.95C885.854 103.45 881.354 89.8 877.754 76H892.754C893.854 80.5 895.154 85.35 896.654 90.55C898.254 95.75 900.004 101.1 901.904 106.6C903.804 112.1 905.854 117.6 908.054 123.1C910.254 128.6 912.554 133.9 914.954 139C918.754 128.5 922.054 118.1 924.854 107.8C927.654 97.5 930.304 86.9 932.804 76H947.204C943.604 90.7 939.604 104.85 935.204 118.45C930.804 131.95 926.054 144.6 920.954 156.4C918.954 160.9 916.854 164.75 914.654 167.95C912.554 171.25 910.204 173.95 907.604 176.05C905.004 178.15 902.054 179.7 898.754 180.7C895.554 181.7 891.904 182.2 887.804 182.2C886.704 182.2 885.554 182.1 884.354 181.9C883.154 181.8 881.954 181.6 880.754 181.3C879.654 181.1 878.604 180.85 877.604 180.55C876.704 180.25 876.054 180 875.654 179.8L878.204 168.55ZM1143.56 115.15C1143.56 106.05 1141.31 99.05 1136.81 94.15C1132.31 89.25 1126.31 86.8 1118.81 86.8C1114.61 86.8 1111.31 86.95 1108.91 87.25C1106.61 87.55 1104.76 87.9 1103.36 88.3V137.5C1105.06 138.9 1107.51 140.25 1110.71 141.55C1113.91 142.85 1117.41 143.5 1121.21 143.5C1125.21 143.5 1128.61 142.8 1131.41 141.4C1134.31 139.9 1136.66 137.9 1138.46 135.4C1140.26 132.8 1141.56 129.8 1142.36 126.4C1143.16 122.9 1143.56 119.15 1143.56 115.15ZM1158.11 115.15C1158.11 121.05 1157.31 126.5 1155.71 131.5C1154.21 136.5 1151.96 140.8 1148.96 144.4C1145.96 148 1142.26 150.8 1137.86 152.8C1133.56 154.8 1128.61 155.8 1123.01 155.8C1118.51 155.8 1114.51 155.2 1111.01 154C1107.61 152.8 1105.06 151.65 1103.36 150.55V181.75H1089.41V78.4C1092.71 77.6 1096.81 76.75 1101.71 75.85C1106.71 74.85 1112.46 74.35 1118.96 74.35C1124.96 74.35 1130.36 75.3 1135.16 77.2C1139.96 79.1 1144.06 81.8 1147.46 85.3C1150.86 88.8 1153.46 93.1 1155.26 98.2C1157.16 103.2 1158.11 108.85 1158.11 115.15ZM1300.89 115.15C1300.89 108.25 1301.89 102.25 1303.89 97.15C1305.89 91.95 1308.54 87.65 1311.84 84.25C1315.14 80.85 1318.94 78.3 1323.24 76.6C1327.54 74.9 1331.94 74.05 1336.44 74.05C1346.94 74.05 1354.99 77.35 1360.59 83.95C1366.19 90.45 1368.99 100.4 1368.99 113.8C1368.99 114.4 1368.99 115.2 1368.99 116.2C1368.99 117.1 1368.94 117.95 1368.84 118.75H1315.44C1316.04 126.85 1318.39 133 1322.49 137.2C1326.59 141.4 1332.99 143.5 1341.69 143.5C1346.59 143.5 1350.69 143.1 1353.99 142.3C1357.39 141.4 1359.94 140.55 1361.64 139.75L1363.59 151.45C1361.89 152.35 1358.89 153.3 1354.59 154.3C1350.39 155.3 1345.59 155.8 1340.19 155.8C1333.39 155.8 1327.49 154.8 1322.49 152.8C1317.59 150.7 1313.54 147.85 1310.34 144.25C1307.14 140.65 1304.74 136.4 1303.14 131.5C1301.64 126.5 1300.89 121.05 1300.89 115.15ZM1354.44 107.5C1354.54 101.2 1352.94 96.05 1349.64 92.05C1346.44 87.95 1341.99 85.9 1336.29 85.9C1333.09 85.9 1330.24 86.55 1327.74 87.85C1325.34 89.05 1323.29 90.65 1321.59 92.65C1319.89 94.65 1318.54 96.95 1317.54 99.55C1316.64 102.15 1316.04 104.8 1315.74 107.5H1354.44Z" fill="white"/>
<g filter="url(#filter0_i)">
<rect x="5" y="26" width="167" height="164" stroke="white" stroke-width="10"/>
</g>
<g filter="url(#filter1_i)">
<rect x="210" y="5" width="167" height="164" stroke="white" stroke-width="10"/>
</g>
<g filter="url(#filter2_i)">
<rect x="419" y="5" width="167" height="164" stroke="white" stroke-width="10"/>
</g>
<g filter="url(#filter3_i)">
<rect x="628" y="5" width="167" height="164" stroke="white" stroke-width="10"/>
</g>
<g filter="url(#filter4_i)">
<rect x="848" y="52" width="167" height="164" stroke="white" stroke-width="10"/>
</g>
<g filter="url(#filter5_i)">
<rect x="1057" y="52" width="167" height="164" stroke="white" stroke-width="10"/>
</g>
<g filter="url(#filter6_i)">
<rect x="1257" y="5" width="167" height="164" stroke="white" stroke-width="10"/>
</g>
<defs>
<filter id="filter0_i" x="0" y="21" width="199" height="194" filterUnits="userSpaceOnUse" color-interpolation-filters="sRGB">
<feFlood flood-opacity="0" result="BackgroundImageFix"/>
<feBlend mode="normal" in="SourceGraphic" in2="BackgroundImageFix" result="shape"/>
<feColorMatrix in="SourceAlpha" type="matrix" values="0 0 0 0 0 0 0 0 0 0 0 0 0 0 0 0 0 0 127 0" result="hardAlpha"/>
<feOffset dx="50" dy="20"/>
<feGaussianBlur stdDeviation="11"/>
<feComposite in2="hardAlpha" operator="arithmetic" k2="-1" k3="1"/>
<feColorMatrix type="matrix" values="0 0 0 0 0 0 0 0 0 0 0 0 0 0 0 0 0 0 0.25 0"/>
<feBlend mode="normal" in2="shape" result="effect1_innerShadow"/>
</filter>
<filter id="filter1_i" x="205" y="0" width="199" height="194" filterUnits="userSpaceOnUse" color-interpolation-filters="sRGB">
<feFlood flood-opacity="0" result="BackgroundImageFix"/>
<feBlend mode="normal" in="SourceGraphic" in2="BackgroundImageFix" result="shape"/>
<feColorMatrix in="SourceAlpha" type="matrix" values="0 0 0 0 0 0 0 0 0 0 0 0 0 0 0 0 0 0 127 0" result="hardAlpha"/>
<feOffset dx="50" dy="20"/>
<feGaussianBlur stdDeviation="11"/>
<feComposite in2="hardAlpha" operator="arithmetic" k2="-1" k3="1"/>
<feColorMatrix type="matrix" values="0 0 0 0 0 0 0 0 0 0 0 0 0 0 0 0 0 0 0.25 0"/>
<feBlend mode="normal" in2="shape" result="effect1_innerShadow"/>
</filter>
<filter id="filter2_i" x="414" y="0" width="199" height="194" filterUnits="userSpaceOnUse" color-interpolation-filters="sRGB">
<feFlood flood-opacity="0" result="BackgroundImageFix"/>
<feBlend mode="normal" in="SourceGraphic" in2="BackgroundImageFix" result="shape"/>
<feColorMatrix in="SourceAlpha" type="matrix" values="0 0 0 0 0 0 0 0 0 0 0 0 0 0 0 0 0 0 127 0" result="hardAlpha"/>
<feOffset dx="50" dy="20"/>
<feGaussianBlur stdDeviation="11"/>
<feComposite in2="hardAlpha" operator="arithmetic" k2="-1" k3="1"/>
<feColorMatrix type="matrix" values="0 0 0 0 0 0 0 0 0 0 0 0 0 0 0 0 0 0 0.25 0"/>
<feBlend mode="normal" in2="shape" result="effect1_innerShadow"/>
</filter>
<filter id="filter3_i" x="623" y="0" width="199" height="194" filterUnits="userSpaceOnUse" color-interpolation-filters="sRGB">
<feFlood flood-opacity="0" result="BackgroundImageFix"/>
<feBlend mode="normal" in="SourceGraphic" in2="BackgroundImageFix" result="shape"/>
<feColorMatrix in="SourceAlpha" type="matrix" values="0 0 0 0 0 0 0 0 0 0 0 0 0 0 0 0 0 0 127 0" result="hardAlpha"/>
<feOffset dx="50" dy="20"/>
<feGaussianBlur stdDeviation="11"/>
<feComposite in2="hardAlpha" operator="arithmetic" k2="-1" k3="1"/>
<feColorMatrix type="matrix" values="0 0 0 0 0 0 0 0 0 0 0 0 0 0 0 0 0 0 0.25 0"/>
<feBlend mode="normal" in2="shape" result="effect1_innerShadow"/>
</filter>
<filter id="filter4_i" x="843" y="47" width="199" height="194" filterUnits="userSpaceOnUse" color-interpolation-filters="sRGB">
<feFlood flood-opacity="0" result="BackgroundImageFix"/>
<feBlend mode="normal" in="SourceGraphic" in2="BackgroundImageFix" result="shape"/>
<feColorMatrix in="SourceAlpha" type="matrix" values="0 0 0 0 0 0 0 0 0 0 0 0 0 0 0 0 0 0 127 0" result="hardAlpha"/>
<feOffset dx="50" dy="20"/>
<feGaussianBlur stdDeviation="11"/>
<feComposite in2="hardAlpha" operator="arithmetic" k2="-1" k3="1"/>
<feColorMatrix type="matrix" values="0 0 0 0 0 0 0 0 0 0 0 0 0 0 0 0 0 0 0.25 0"/>
<feBlend mode="normal" in2="shape" result="effect1_innerShadow"/>
</filter>
<filter id="filter5_i" x="1052" y="47" width="199" height="194" filterUnits="userSpaceOnUse" color-interpolation-filters="sRGB">
<feFlood flood-opacity="0" result="BackgroundImageFix"/>
<feBlend mode="normal" in="SourceGraphic" in2="BackgroundImageFix" result="shape"/>
<feColorMatrix in="SourceAlpha" type="matrix" values="0 0 0 0 0 0 0 0 0 0 0 0 0 0 0 0 0 0 127 0" result="hardAlpha"/>
<feOffset dx="50" dy="20"/>
<feGaussianBlur stdDeviation="11"/>
<feComposite in2="hardAlpha" operator="arithmetic" k2="-1" k3="1"/>
<feColorMatrix type="matrix" values="0 0 0 0 0 0 0 0 0 0 0 0 0 0 0 0 0 0 0.25 0"/>
<feBlend mode="normal" in2="shape" result="effect1_innerShadow"/>
</filter>
<filter id="filter6_i" x="1252" y="0" width="199" height="194" filterUnits="userSpaceOnUse" color-interpolation-filters="sRGB">
<feFlood flood-opacity="0" result="BackgroundImageFix"/>
<feBlend mode="normal" in="SourceGraphic" in2="BackgroundImageFix" result="shape"/>
<feColorMatrix in="SourceAlpha" type="matrix" values="0 0 0 0 0 0 0 0 0 0 0 0 0 0 0 0 0 0 127 0" result="hardAlpha"/>
<feOffset dx="50" dy="20"/>
<feGaussianBlur stdDeviation="11"/>
<feComposite in2="hardAlpha" operator="arithmetic" k2="-1" k3="1"/>
<feColorMatrix type="matrix" values="0 0 0 0 0 0 0 0 0 0 0 0 0 0 0 0 0 0 0.25 0"/>
<feBlend mode="normal" in2="shape" result="effect1_innerShadow"/>
</filter>
</defs>
</svg>
