<svg width="1022" height="407" viewBox="0 0 1022 407" fill="none" xmlns="http://www.w3.org/2000/svg">
<path d="M125.856 179.4V200.424H54.72V266.376H118.656V287.4H54.72V359.976H125.856V381H29.664V179.4H125.856ZM230.411 381H207.083V179.4H247.979L293.483 359.688V179.4H316.811V381H275.627L230.411 200.712V381ZM433.751 381V201.288H387.959V179.4H504.599V201.288H458.807V381H433.751ZM678.85 179.4V200.424H607.714V266.376H671.65V287.4H607.714V359.976H678.85V381H582.658V179.4H678.85ZM782.541 297.48V381H757.485V179.4H811.629C827.949 179.4 840.237 183.048 848.493 190.344C856.941 197.448 861.165 208.776 861.165 224.328V251.976C861.165 273.672 852.525 287.208 835.245 292.584L875.277 381H847.917L810.765 297.48H782.541ZM836.109 221.736C836.109 214.44 834.381 209.16 830.925 205.896C827.661 202.632 822.381 201 815.085 201H782.541V275.88H815.085C822.381 275.88 827.661 274.248 830.925 270.984C834.381 267.528 836.109 262.152 836.109 254.856V221.736Z" fill="black" fill-opacity="0.5"/>
<path fill-rule="evenodd" clip-rule="evenodd" d="M1022 0.399994H1020V21.424H1022V0.399994ZM1022 87.376H993.714V50H968.658V202H1022V180.976H993.714V108.4H1022V87.376ZM1261 202H1261.28L1261 201.388V202ZM415.664 202V50H440.72V87.376H504.656V108.4H440.72V180.976H511.856V202H415.664ZM593.083 202V50H616.411V202H593.083ZM661.627 202L623.506 50H646.498L679.483 180.688V50H702.811V202H661.627ZM819.751 202V50H844.807V202H819.751Z" fill="black" fill-opacity="0.5"/>
</svg>
